<mxfile host="app.diagrams.net" modified="2021-09-13T04:50:47.387Z" agent="5.0 (Windows NT 10.0; Win64; x64) AppleWebKit/537.36 (KHTML, like Gecko) Chrome/93.0.4577.63 Safari/537.36" etag="e9vRaOaWKsh45t4RA1qt" version="15.1.4" type="github">
  <diagram id="3og0gf8gtnWCEk_-Y0HO" name="Page-1">
    <mxGraphModel dx="-157" dy="1024" grid="0" gridSize="10" guides="1" tooltips="1" connect="1" arrows="1" fold="1" page="0" pageScale="1" pageWidth="850" pageHeight="1100" math="0" shadow="0">
      <root>
        <mxCell id="0" />
        <mxCell id="1" parent="0" />
        <mxCell id="ZslXiAwdW-3EuPROBi18-5" value="&lt;b&gt;&lt;font color=&quot;#660000&quot;&gt;Citrix ESXi&lt;/font&gt;&lt;/b&gt;" style="text;html=1;strokeColor=none;fillColor=none;align=center;verticalAlign=middle;whiteSpace=wrap;rounded=0;" parent="1" vertex="1">
          <mxGeometry x="2161" y="350" width="125" height="12" as="geometry" />
        </mxCell>
        <mxCell id="ZslXiAwdW-3EuPROBi18-6" value="&lt;b&gt;&lt;font color=&quot;#660000&quot;&gt;Production ESXi&lt;/font&gt;&lt;/b&gt;" style="text;html=1;strokeColor=none;fillColor=none;align=center;verticalAlign=middle;whiteSpace=wrap;rounded=0;" parent="1" vertex="1">
          <mxGeometry x="1952" y="350" width="125" height="12" as="geometry" />
        </mxCell>
        <mxCell id="ZslXiAwdW-3EuPROBi18-9" value="" style="aspect=fixed;pointerEvents=1;shadow=0;dashed=0;html=1;strokeColor=none;labelPosition=center;verticalLabelPosition=bottom;verticalAlign=top;align=center;fillColor=#00188D;shape=mxgraph.azure.virtual_machine_feature" parent="1" vertex="1">
          <mxGeometry x="2275.11" y="290" width="28.89" height="26" as="geometry" />
        </mxCell>
        <mxCell id="ZslXiAwdW-3EuPROBi18-10" value="" style="aspect=fixed;pointerEvents=1;shadow=0;dashed=0;html=1;strokeColor=none;labelPosition=center;verticalLabelPosition=bottom;verticalAlign=top;align=center;fillColor=#00188D;shape=mxgraph.azure.virtual_machine_feature" parent="1" vertex="1">
          <mxGeometry x="2183" y="290" width="28.89" height="26" as="geometry" />
        </mxCell>
        <mxCell id="ZslXiAwdW-3EuPROBi18-11" value="" style="aspect=fixed;pointerEvents=1;shadow=0;dashed=0;html=1;strokeColor=none;labelPosition=center;verticalLabelPosition=bottom;verticalAlign=top;align=center;fillColor=#00188D;shape=mxgraph.azure.virtual_machine_feature" parent="1" vertex="1">
          <mxGeometry x="2146" y="290" width="28.89" height="26" as="geometry" />
        </mxCell>
        <mxCell id="ZslXiAwdW-3EuPROBi18-12" value="" style="aspect=fixed;pointerEvents=1;shadow=0;dashed=0;html=1;strokeColor=none;labelPosition=center;verticalLabelPosition=bottom;verticalAlign=top;align=center;fillColor=#00188D;shape=mxgraph.azure.virtual_machine_feature" parent="1" vertex="1">
          <mxGeometry x="2066" y="290" width="28.89" height="26" as="geometry" />
        </mxCell>
        <mxCell id="ZslXiAwdW-3EuPROBi18-13" value="" style="aspect=fixed;pointerEvents=1;shadow=0;dashed=0;html=1;strokeColor=none;labelPosition=center;verticalLabelPosition=bottom;verticalAlign=top;align=center;fillColor=#00188D;shape=mxgraph.azure.virtual_machine_feature" parent="1" vertex="1">
          <mxGeometry x="1970" y="292" width="28.89" height="26" as="geometry" />
        </mxCell>
        <mxCell id="ZslXiAwdW-3EuPROBi18-14" value="" style="aspect=fixed;pointerEvents=1;shadow=0;dashed=0;html=1;strokeColor=none;labelPosition=center;verticalLabelPosition=bottom;verticalAlign=top;align=center;fillColor=#00188D;shape=mxgraph.azure.virtual_machine_feature" parent="1" vertex="1">
          <mxGeometry x="1932.11" y="292" width="28.89" height="26" as="geometry" />
        </mxCell>
        <mxCell id="ZslXiAwdW-3EuPROBi18-21" value="158 Virtual Servers" style="text;html=1;strokeColor=none;fillColor=none;align=center;verticalAlign=middle;whiteSpace=wrap;rounded=0;" parent="1" vertex="1">
          <mxGeometry x="1942" y="325" width="139" height="12" as="geometry" />
        </mxCell>
        <mxCell id="ZslXiAwdW-3EuPROBi18-22" value="38 Virtual Servers" style="text;html=1;strokeColor=none;fillColor=none;align=center;verticalAlign=middle;whiteSpace=wrap;rounded=0;" parent="1" vertex="1">
          <mxGeometry x="2154" y="325" width="139" height="12" as="geometry" />
        </mxCell>
        <mxCell id="ZslXiAwdW-3EuPROBi18-76" style="edgeStyle=orthogonalEdgeStyle;rounded=0;orthogonalLoop=1;jettySize=auto;html=1;entryX=0.5;entryY=1;entryDx=0;entryDy=0;startArrow=classic;startFill=1;endArrow=classic;endFill=1;" parent="1" source="ZslXiAwdW-3EuPROBi18-24" target="ZslXiAwdW-3EuPROBi18-41" edge="1">
          <mxGeometry relative="1" as="geometry" />
        </mxCell>
        <mxCell id="ZslXiAwdW-3EuPROBi18-24" value="" style="rounded=0;whiteSpace=wrap;html=1;strokeColor=#663300;fillColor=none;" parent="1" vertex="1">
          <mxGeometry x="1924" y="274" width="175" height="92" as="geometry" />
        </mxCell>
        <mxCell id="ZslXiAwdW-3EuPROBi18-77" style="edgeStyle=orthogonalEdgeStyle;rounded=0;orthogonalLoop=1;jettySize=auto;html=1;entryX=0.852;entryY=0.952;entryDx=0;entryDy=0;entryPerimeter=0;startArrow=classic;startFill=1;endArrow=classic;endFill=1;" parent="1" source="ZslXiAwdW-3EuPROBi18-25" target="ZslXiAwdW-3EuPROBi18-41" edge="1">
          <mxGeometry relative="1" as="geometry" />
        </mxCell>
        <mxCell id="ZslXiAwdW-3EuPROBi18-25" value="" style="rounded=0;whiteSpace=wrap;html=1;strokeColor=#663300;fillColor=none;" parent="1" vertex="1">
          <mxGeometry x="2138" y="274" width="175" height="92" as="geometry" />
        </mxCell>
        <mxCell id="ZslXiAwdW-3EuPROBi18-79" style="edgeStyle=orthogonalEdgeStyle;rounded=0;orthogonalLoop=1;jettySize=auto;html=1;entryX=0.5;entryY=1;entryDx=0;entryDy=0;startArrow=classic;startFill=1;endArrow=classic;endFill=1;" parent="1" source="ZslXiAwdW-3EuPROBi18-27" target="ZslXiAwdW-3EuPROBi18-24" edge="1">
          <mxGeometry relative="1" as="geometry" />
        </mxCell>
        <mxCell id="ZslXiAwdW-3EuPROBi18-27" value="" style="rounded=1;whiteSpace=wrap;html=1;strokeColor=#663300;fillColor=none;" parent="1" vertex="1">
          <mxGeometry x="1924.5" y="397" width="174" height="28" as="geometry" />
        </mxCell>
        <mxCell id="ZslXiAwdW-3EuPROBi18-80" style="edgeStyle=orthogonalEdgeStyle;rounded=0;orthogonalLoop=1;jettySize=auto;html=1;entryX=0.5;entryY=1;entryDx=0;entryDy=0;startArrow=classic;startFill=1;endArrow=classic;endFill=1;" parent="1" source="ZslXiAwdW-3EuPROBi18-28" target="ZslXiAwdW-3EuPROBi18-25" edge="1">
          <mxGeometry relative="1" as="geometry" />
        </mxCell>
        <mxCell id="ZslXiAwdW-3EuPROBi18-28" value="" style="rounded=1;whiteSpace=wrap;html=1;strokeColor=#663300;fillColor=none;" parent="1" vertex="1">
          <mxGeometry x="2139" y="397" width="174" height="28" as="geometry" />
        </mxCell>
        <mxCell id="ZslXiAwdW-3EuPROBi18-83" style="edgeStyle=orthogonalEdgeStyle;rounded=0;orthogonalLoop=1;jettySize=auto;html=1;entryX=0.5;entryY=1;entryDx=0;entryDy=0;startArrow=classic;startFill=1;endArrow=classic;endFill=1;" parent="1" source="ZslXiAwdW-3EuPROBi18-30" target="ZslXiAwdW-3EuPROBi18-27" edge="1">
          <mxGeometry relative="1" as="geometry" />
        </mxCell>
        <mxCell id="ZslXiAwdW-3EuPROBi18-30" value="" style="shape=cylinder3;whiteSpace=wrap;html=1;boundedLbl=1;backgroundOutline=1;size=15;strokeColor=#663300;fillColor=none;" parent="1" vertex="1">
          <mxGeometry x="1906.89" y="475" width="74.11" height="58" as="geometry" />
        </mxCell>
        <mxCell id="ZslXiAwdW-3EuPROBi18-86" style="edgeStyle=orthogonalEdgeStyle;rounded=0;orthogonalLoop=1;jettySize=auto;html=1;entryX=0.554;entryY=1.107;entryDx=0;entryDy=0;entryPerimeter=0;startArrow=classic;startFill=1;endArrow=classic;endFill=1;" parent="1" source="ZslXiAwdW-3EuPROBi18-31" target="ZslXiAwdW-3EuPROBi18-28" edge="1">
          <mxGeometry relative="1" as="geometry" />
        </mxCell>
        <mxCell id="ZslXiAwdW-3EuPROBi18-31" value="" style="shape=cylinder3;whiteSpace=wrap;html=1;boundedLbl=1;backgroundOutline=1;size=15;strokeColor=#663300;fillColor=none;" parent="1" vertex="1">
          <mxGeometry x="2189" y="466" width="92" height="58" as="geometry" />
        </mxCell>
        <mxCell id="ZslXiAwdW-3EuPROBi18-33" value="Production SAN Switch" style="text;html=1;strokeColor=none;fillColor=none;align=center;verticalAlign=middle;whiteSpace=wrap;rounded=0;" parent="1" vertex="1">
          <mxGeometry x="1920.5" y="405" width="178" height="12" as="geometry" />
        </mxCell>
        <mxCell id="ZslXiAwdW-3EuPROBi18-34" value="Citrix SAN Switch" style="text;html=1;strokeColor=none;fillColor=none;align=center;verticalAlign=middle;whiteSpace=wrap;rounded=0;" parent="1" vertex="1">
          <mxGeometry x="2139" y="405" width="178" height="12" as="geometry" />
        </mxCell>
        <mxCell id="ZslXiAwdW-3EuPROBi18-36" value="SAN" style="text;html=1;strokeColor=none;fillColor=none;align=center;verticalAlign=middle;whiteSpace=wrap;rounded=0;fontStyle=0" parent="1" vertex="1">
          <mxGeometry x="2223" y="497" width="40" height="20" as="geometry" />
        </mxCell>
        <mxCell id="ZslXiAwdW-3EuPROBi18-37" value="SAN" style="text;html=1;strokeColor=none;fillColor=none;align=center;verticalAlign=middle;whiteSpace=wrap;rounded=0;fontStyle=0" parent="1" vertex="1">
          <mxGeometry x="1921" y="507" width="40" height="20" as="geometry" />
        </mxCell>
        <mxCell id="ZslXiAwdW-3EuPROBi18-41" value="" style="rounded=1;whiteSpace=wrap;html=1;strokeColor=#663300;fillColor=none;" parent="1" vertex="1">
          <mxGeometry x="1708.5" y="212" width="606" height="21" as="geometry" />
        </mxCell>
        <mxCell id="ZslXiAwdW-3EuPROBi18-42" value="CORE SWITCHES" style="text;html=1;strokeColor=none;fillColor=none;align=center;verticalAlign=middle;whiteSpace=wrap;rounded=0;" parent="1" vertex="1">
          <mxGeometry x="1896" y="221.5" width="181" height="5" as="geometry" />
        </mxCell>
        <mxCell id="ZslXiAwdW-3EuPROBi18-84" style="edgeStyle=orthogonalEdgeStyle;rounded=0;orthogonalLoop=1;jettySize=auto;html=1;startArrow=classic;startFill=1;endArrow=classic;endFill=1;" parent="1" source="ZslXiAwdW-3EuPROBi18-43" edge="1">
          <mxGeometry relative="1" as="geometry">
            <mxPoint x="2010.6666259765625" y="427.3333740234375" as="targetPoint" />
          </mxGeometry>
        </mxCell>
        <mxCell id="ZslXiAwdW-3EuPROBi18-43" value="" style="shape=cylinder3;whiteSpace=wrap;html=1;boundedLbl=1;backgroundOutline=1;size=15;strokeColor=#663300;fillColor=none;" parent="1" vertex="1">
          <mxGeometry x="1988" y="475" width="74.11" height="58" as="geometry" />
        </mxCell>
        <mxCell id="ZslXiAwdW-3EuPROBi18-85" style="edgeStyle=orthogonalEdgeStyle;rounded=0;orthogonalLoop=1;jettySize=auto;html=1;startArrow=classic;startFill=1;endArrow=classic;endFill=1;" parent="1" source="ZslXiAwdW-3EuPROBi18-44" edge="1">
          <mxGeometry relative="1" as="geometry">
            <mxPoint x="2011.9999389648438" y="427.3333740234375" as="targetPoint" />
            <Array as="points">
              <mxPoint x="2103" y="452" />
              <mxPoint x="2012" y="452" />
            </Array>
          </mxGeometry>
        </mxCell>
        <mxCell id="ZslXiAwdW-3EuPROBi18-44" value="" style="shape=cylinder3;whiteSpace=wrap;html=1;boundedLbl=1;backgroundOutline=1;size=15;strokeColor=#663300;fillColor=none;" parent="1" vertex="1">
          <mxGeometry x="2066" y="475" width="74.11" height="58" as="geometry" />
        </mxCell>
        <mxCell id="ZslXiAwdW-3EuPROBi18-45" value="Tape Lib." style="text;html=1;strokeColor=none;fillColor=none;align=center;verticalAlign=middle;whiteSpace=wrap;rounded=0;" parent="1" vertex="1">
          <mxGeometry x="1998.89" y="507" width="51.11" height="21" as="geometry" />
        </mxCell>
        <mxCell id="ZslXiAwdW-3EuPROBi18-46" value="CommVault" style="text;html=1;strokeColor=none;fillColor=none;align=center;verticalAlign=middle;whiteSpace=wrap;rounded=0;" parent="1" vertex="1">
          <mxGeometry x="2077" y="507" width="51.11" height="21" as="geometry" />
        </mxCell>
        <mxCell id="ZslXiAwdW-3EuPROBi18-68" style="edgeStyle=orthogonalEdgeStyle;rounded=0;orthogonalLoop=1;jettySize=auto;html=1;startArrow=classic;startFill=1;endArrow=classic;endFill=1;" parent="1" source="ZslXiAwdW-3EuPROBi18-47" edge="1">
          <mxGeometry relative="1" as="geometry">
            <mxPoint x="1820.6666259765625" y="144.5" as="targetPoint" />
          </mxGeometry>
        </mxCell>
        <mxCell id="ZslXiAwdW-3EuPROBi18-47" value="" style="aspect=fixed;pointerEvents=1;shadow=0;dashed=0;html=1;strokeColor=none;labelPosition=center;verticalLabelPosition=bottom;verticalAlign=top;align=center;fillColor=#00188D;shape=mxgraph.mscae.enterprise.router" parent="1" vertex="1">
          <mxGeometry x="1729" y="125" width="50" height="39" as="geometry" />
        </mxCell>
        <mxCell id="ZslXiAwdW-3EuPROBi18-48" value="" style="aspect=fixed;perimeter=ellipsePerimeter;html=1;align=center;shadow=0;dashed=0;spacingTop=3;image;image=img/lib/active_directory/firewall.svg;strokeColor=#663300;fillColor=none;" parent="1" vertex="1">
          <mxGeometry x="1966" y="111" width="30.5" height="50" as="geometry" />
        </mxCell>
        <mxCell id="ZslXiAwdW-3EuPROBi18-74" style="edgeStyle=orthogonalEdgeStyle;rounded=0;orthogonalLoop=1;jettySize=auto;html=1;startArrow=classic;startFill=1;endArrow=classic;endFill=1;" parent="1" source="ZslXiAwdW-3EuPROBi18-49" edge="1">
          <mxGeometry relative="1" as="geometry">
            <mxPoint x="2233" y="211" as="targetPoint" />
          </mxGeometry>
        </mxCell>
        <mxCell id="ZslXiAwdW-3EuPROBi18-49" value="" style="aspect=fixed;pointerEvents=1;shadow=0;dashed=0;html=1;strokeColor=none;labelPosition=center;verticalLabelPosition=bottom;verticalAlign=top;align=center;fillColor=#00188D;shape=mxgraph.mscae.enterprise.router" parent="1" vertex="1">
          <mxGeometry x="2208" y="128" width="50" height="39" as="geometry" />
        </mxCell>
        <mxCell id="ZslXiAwdW-3EuPROBi18-50" value="" style="aspect=fixed;perimeter=ellipsePerimeter;html=1;align=center;shadow=0;dashed=0;spacingTop=3;image;image=img/lib/active_directory/firewall.svg;strokeColor=#663300;fillColor=none;" parent="1" vertex="1">
          <mxGeometry x="1996.5" y="110" width="30.5" height="50" as="geometry" />
        </mxCell>
        <mxCell id="ZslXiAwdW-3EuPROBi18-51" value="Gamma SIP Router" style="text;html=1;strokeColor=none;fillColor=none;align=center;verticalAlign=middle;whiteSpace=wrap;rounded=0;" parent="1" vertex="1">
          <mxGeometry x="1697.5" y="167" width="113" height="20" as="geometry" />
        </mxCell>
        <mxCell id="ZslXiAwdW-3EuPROBi18-52" value="Firewalls (Fortigate, Meraki)" style="text;html=1;strokeColor=none;fillColor=none;align=center;verticalAlign=middle;whiteSpace=wrap;rounded=0;" parent="1" vertex="1">
          <mxGeometry x="1918" y="184" width="153.45" height="20" as="geometry" />
        </mxCell>
        <mxCell id="ZslXiAwdW-3EuPROBi18-53" value="Pulsant MPLS Router" style="text;html=1;strokeColor=none;fillColor=none;align=center;verticalAlign=middle;whiteSpace=wrap;rounded=0;" parent="1" vertex="1">
          <mxGeometry x="2150" y="184" width="120.89" height="20" as="geometry" />
        </mxCell>
        <mxCell id="ZslXiAwdW-3EuPROBi18-67" style="edgeStyle=orthogonalEdgeStyle;rounded=0;orthogonalLoop=1;jettySize=auto;html=1;startArrow=classic;startFill=1;endArrow=classic;endFill=1;" parent="1" source="ZslXiAwdW-3EuPROBi18-54" edge="1">
          <mxGeometry relative="1" as="geometry">
            <mxPoint x="1759" y="133" as="targetPoint" />
          </mxGeometry>
        </mxCell>
        <mxCell id="ZslXiAwdW-3EuPROBi18-54" value="" style="ellipse;shape=cloud;whiteSpace=wrap;html=1;strokeColor=#663300;fillColor=none;" parent="1" vertex="1">
          <mxGeometry x="1699" y="45" width="120" height="49" as="geometry" />
        </mxCell>
        <mxCell id="ZslXiAwdW-3EuPROBi18-71" style="edgeStyle=orthogonalEdgeStyle;rounded=0;orthogonalLoop=1;jettySize=auto;html=1;entryX=0.368;entryY=0.107;entryDx=0;entryDy=0;entryPerimeter=0;startArrow=classic;startFill=1;endArrow=classic;endFill=1;" parent="1" source="ZslXiAwdW-3EuPROBi18-55" target="ZslXiAwdW-3EuPROBi18-65" edge="1">
          <mxGeometry relative="1" as="geometry" />
        </mxCell>
        <mxCell id="ZslXiAwdW-3EuPROBi18-55" value="" style="ellipse;shape=cloud;whiteSpace=wrap;html=1;strokeColor=#663300;fillColor=none;" parent="1" vertex="1">
          <mxGeometry x="1926.5" y="37" width="120" height="39" as="geometry" />
        </mxCell>
        <mxCell id="ZslXiAwdW-3EuPROBi18-72" style="edgeStyle=orthogonalEdgeStyle;rounded=0;orthogonalLoop=1;jettySize=auto;html=1;startArrow=classic;startFill=1;endArrow=classic;endFill=1;entryX=0.5;entryY=0.22;entryDx=0;entryDy=0;entryPerimeter=0;" parent="1" source="ZslXiAwdW-3EuPROBi18-56" target="ZslXiAwdW-3EuPROBi18-49" edge="1">
          <mxGeometry relative="1" as="geometry">
            <mxPoint x="2231" y="137" as="targetPoint" />
          </mxGeometry>
        </mxCell>
        <mxCell id="ZslXiAwdW-3EuPROBi18-56" value="" style="ellipse;shape=cloud;whiteSpace=wrap;html=1;strokeColor=#663300;fillColor=none;" parent="1" vertex="1">
          <mxGeometry x="2173" y="48" width="120" height="49" as="geometry" />
        </mxCell>
        <mxCell id="ZslXiAwdW-3EuPROBi18-57" value="Internet" style="text;html=1;strokeColor=none;fillColor=none;align=center;verticalAlign=middle;whiteSpace=wrap;rounded=0;" parent="1" vertex="1">
          <mxGeometry x="1970" y="54.5" width="40" height="20" as="geometry" />
        </mxCell>
        <mxCell id="ZslXiAwdW-3EuPROBi18-58" value="Gamma n/w&amp;nbsp;" style="text;html=1;strokeColor=none;fillColor=none;align=center;verticalAlign=middle;whiteSpace=wrap;rounded=0;" parent="1" vertex="1">
          <mxGeometry x="1729" y="62.5" width="76" height="20" as="geometry" />
        </mxCell>
        <mxCell id="ZslXiAwdW-3EuPROBi18-59" value="MPLS Cloud" style="text;html=1;strokeColor=none;fillColor=none;align=center;verticalAlign=middle;whiteSpace=wrap;rounded=0;" parent="1" vertex="1">
          <mxGeometry x="2187" y="62.5" width="76" height="20" as="geometry" />
        </mxCell>
        <mxCell id="ZslXiAwdW-3EuPROBi18-70" style="edgeStyle=orthogonalEdgeStyle;rounded=0;orthogonalLoop=1;jettySize=auto;html=1;entryX=0.233;entryY=-0.032;entryDx=0;entryDy=0;entryPerimeter=0;startArrow=classic;startFill=1;endArrow=classic;endFill=1;" parent="1" source="ZslXiAwdW-3EuPROBi18-61" target="ZslXiAwdW-3EuPROBi18-41" edge="1">
          <mxGeometry relative="1" as="geometry" />
        </mxCell>
        <mxCell id="ZslXiAwdW-3EuPROBi18-61" value="" style="rounded=1;whiteSpace=wrap;html=1;strokeColor=#663300;fillColor=#A9C4EB;" parent="1" vertex="1">
          <mxGeometry x="1820.89" y="117" width="58" height="49" as="geometry" />
        </mxCell>
        <mxCell id="ZslXiAwdW-3EuPROBi18-62" value="Sonus SBC" style="text;html=1;strokeColor=none;fillColor=none;align=center;verticalAlign=middle;whiteSpace=wrap;rounded=0;" parent="1" vertex="1">
          <mxGeometry x="1852.4999999999998" y="164" width="68" height="20" as="geometry" />
        </mxCell>
        <mxCell id="ZslXiAwdW-3EuPROBi18-73" style="edgeStyle=orthogonalEdgeStyle;rounded=0;orthogonalLoop=1;jettySize=auto;html=1;entryX=0.552;entryY=-0.833;entryDx=0;entryDy=0;entryPerimeter=0;startArrow=classic;startFill=1;endArrow=classic;endFill=1;" parent="1" source="ZslXiAwdW-3EuPROBi18-65" target="ZslXiAwdW-3EuPROBi18-42" edge="1">
          <mxGeometry relative="1" as="geometry" />
        </mxCell>
        <mxCell id="ZslXiAwdW-3EuPROBi18-65" value="" style="rounded=0;whiteSpace=wrap;html=1;strokeColor=#663300;fillColor=none;" parent="1" vertex="1">
          <mxGeometry x="1960" y="107" width="72" height="53" as="geometry" />
        </mxCell>
        <mxCell id="ZslXiAwdW-3EuPROBi18-87" value="&lt;b&gt;&lt;font color=&quot;#660000&quot; style=&quot;font-size: 18px&quot;&gt;ONE HOUSING GROUP INTERIM ARCHITECTURE (PULSANT) - TEST &amp;amp; DEV&amp;nbsp;&lt;br&gt;&lt;/font&gt;&lt;/b&gt;" style="text;html=1;strokeColor=none;fillColor=none;align=center;verticalAlign=middle;whiteSpace=wrap;rounded=0;" parent="1" vertex="1">
          <mxGeometry x="1535.64" y="-18" width="750" height="20" as="geometry" />
        </mxCell>
        <mxCell id="ZslXiAwdW-3EuPROBi18-88" value="" style="rounded=1;whiteSpace=wrap;html=1;strokeColor=#663300;fillColor=none;dashed=1;" parent="1" vertex="1">
          <mxGeometry x="1540.4399999999998" y="-27" width="745.56" height="38" as="geometry" />
        </mxCell>
        <mxCell id="DsS_SBAshPuA6-jMRPFO-1" value="" style="rounded=0;whiteSpace=wrap;html=1;fillColor=none;strokeColor=#009900;" parent="1" vertex="1">
          <mxGeometry x="1400" y="207.5" width="150" height="30" as="geometry" />
        </mxCell>
        <mxCell id="DsS_SBAshPuA6-jMRPFO-2" value="" style="aspect=fixed;html=1;points=[];align=center;image;fontSize=12;image=img/lib/azure2/compute/Virtual_Machine.svg;fillColor=none;" parent="1" vertex="1">
          <mxGeometry x="1440" y="294" width="31.27" height="29" as="geometry" />
        </mxCell>
        <mxCell id="DsS_SBAshPuA6-jMRPFO-3" value="" style="aspect=fixed;html=1;points=[];align=center;image;fontSize=12;image=img/lib/azure2/compute/Virtual_Machine.svg;fillColor=none;" parent="1" vertex="1">
          <mxGeometry x="1513.73" y="296" width="31.27" height="29" as="geometry" />
        </mxCell>
        <mxCell id="DsS_SBAshPuA6-jMRPFO-4" value="" style="aspect=fixed;html=1;points=[];align=center;image;fontSize=12;image=img/lib/azure2/compute/Virtual_Machine.svg;fillColor=none;" parent="1" vertex="1">
          <mxGeometry x="1405" y="294" width="31.27" height="29" as="geometry" />
        </mxCell>
        <mxCell id="DsS_SBAshPuA6-jMRPFO-5" value="33 virtual Machines" style="text;html=1;strokeColor=none;fillColor=none;align=center;verticalAlign=middle;whiteSpace=wrap;rounded=0;" parent="1" vertex="1">
          <mxGeometry x="1405" y="325" width="120" height="20" as="geometry" />
        </mxCell>
        <mxCell id="DsS_SBAshPuA6-jMRPFO-6" value="&lt;b&gt;&lt;font style=&quot;font-size: 14px&quot;&gt;Test &amp;amp; Dev&lt;/font&gt;&lt;/b&gt;" style="text;html=1;strokeColor=none;fillColor=none;align=center;verticalAlign=middle;whiteSpace=wrap;rounded=0;" parent="1" vertex="1">
          <mxGeometry x="1435.64" y="362" width="100" height="20" as="geometry" />
        </mxCell>
        <mxCell id="DsS_SBAshPuA6-jMRPFO-7" value="" style="rounded=0;whiteSpace=wrap;html=1;fillColor=none;strokeColor=#009900;" parent="1" vertex="1">
          <mxGeometry x="1395" y="280" width="160" height="110" as="geometry" />
        </mxCell>
        <mxCell id="DsS_SBAshPuA6-jMRPFO-14" style="edgeStyle=orthogonalEdgeStyle;rounded=0;orthogonalLoop=1;jettySize=auto;html=1;entryX=0.5;entryY=0;entryDx=0;entryDy=0;startArrow=classic;startFill=1;" parent="1" source="DsS_SBAshPuA6-jMRPFO-9" target="DsS_SBAshPuA6-jMRPFO-7" edge="1">
          <mxGeometry relative="1" as="geometry" />
        </mxCell>
        <mxCell id="DsS_SBAshPuA6-jMRPFO-9" value="PULSANT Cisco ACI N/w" style="text;html=1;strokeColor=none;fillColor=none;align=center;verticalAlign=middle;whiteSpace=wrap;rounded=0;dashed=1;" parent="1" vertex="1">
          <mxGeometry x="1405" y="214" width="140" height="20" as="geometry" />
        </mxCell>
        <mxCell id="DsS_SBAshPuA6-jMRPFO-11" value="" style="rounded=0;whiteSpace=wrap;html=1;gradientColor=#ffffff;fillColor=none;" parent="1" vertex="1">
          <mxGeometry x="1550" y="218.25" width="158.5" height="8.5" as="geometry" />
        </mxCell>
        <mxCell id="DsS_SBAshPuA6-jMRPFO-13" value="" style="rounded=1;whiteSpace=wrap;html=1;dashed=1;fillColor=none;strokeColor=#009900;" parent="1" vertex="1">
          <mxGeometry x="1376" y="190" width="189" height="250" as="geometry" />
        </mxCell>
        <mxCell id="DsS_SBAshPuA6-jMRPFO-16" value="&lt;b&gt;&lt;font style=&quot;font-size: 14px&quot; color=&quot;#009900&quot;&gt;New PEC Environment&lt;/font&gt;&lt;/b&gt;" style="text;html=1;strokeColor=none;fillColor=none;align=center;verticalAlign=middle;whiteSpace=wrap;rounded=0;" parent="1" vertex="1">
          <mxGeometry x="1375" y="417" width="195" height="20" as="geometry" />
        </mxCell>
        <mxCell id="DsS_SBAshPuA6-jMRPFO-19" value="" style="rounded=0;whiteSpace=wrap;html=1;dashed=1;strokeWidth=1;fillColor=none;gradientColor=#ffffff;" parent="1" vertex="1">
          <mxGeometry x="1685.95" y="32" width="645.05" height="562" as="geometry" />
        </mxCell>
        <mxCell id="DsS_SBAshPuA6-jMRPFO-20" value="&lt;b&gt;&lt;font style=&quot;font-size: 18px&quot;&gt;PULSANT&lt;/font&gt;&lt;/b&gt;" style="text;html=1;strokeColor=none;fillColor=none;align=center;verticalAlign=middle;whiteSpace=wrap;rounded=0;dashed=1;dashPattern=1 2;" parent="1" vertex="1">
          <mxGeometry x="1395" y="462.5" width="148" height="35" as="geometry" />
        </mxCell>
        <mxCell id="DsS_SBAshPuA6-jMRPFO-22" value="&lt;span style=&quot;font-size: 18px&quot;&gt;&lt;b&gt;One Housing Group&lt;/b&gt;&lt;/span&gt;" style="text;html=1;strokeColor=none;fillColor=none;align=center;verticalAlign=middle;whiteSpace=wrap;rounded=0;dashed=1;dashPattern=1 2;" parent="1" vertex="1">
          <mxGeometry x="1994.5" y="544" width="188.5" height="35" as="geometry" />
        </mxCell>
        <mxCell id="9RvozoWMVn-1PqEMfXuX-1" value="" style="shape=cylinder3;whiteSpace=wrap;html=1;boundedLbl=1;backgroundOutline=1;size=7.999969482421875;fillColor=#CCE5FF;" parent="1" vertex="1">
          <mxGeometry x="2071.45" y="50" width="32.55" height="35" as="geometry" />
        </mxCell>
        <mxCell id="9RvozoWMVn-1PqEMfXuX-2" value="" style="rounded=0;whiteSpace=wrap;html=1;fillColor=#CCE5FF;" parent="1" vertex="1">
          <mxGeometry x="2107.11" y="85" width="33" height="19" as="geometry" />
        </mxCell>
        <mxCell id="9RvozoWMVn-1PqEMfXuX-3" value="" style="rounded=0;whiteSpace=wrap;html=1;fillColor=#CCE5FF;" parent="1" vertex="1">
          <mxGeometry x="2110" y="55" width="33" height="19" as="geometry" />
        </mxCell>
        <mxCell id="9RvozoWMVn-1PqEMfXuX-5" value="&lt;font style=&quot;font-size: 10px&quot;&gt;DMP&lt;/font&gt;" style="text;html=1;strokeColor=none;fillColor=none;align=center;verticalAlign=middle;whiteSpace=wrap;rounded=0;" parent="1" vertex="1">
          <mxGeometry x="2067.7200000000003" y="62.5" width="40" height="20" as="geometry" />
        </mxCell>
        <mxCell id="9RvozoWMVn-1PqEMfXuX-6" value="&lt;font style=&quot;font-size: 10px&quot;&gt;CRM&lt;/font&gt;" style="text;html=1;strokeColor=none;fillColor=none;align=center;verticalAlign=middle;whiteSpace=wrap;rounded=0;" parent="1" vertex="1">
          <mxGeometry x="2106.0000000000005" y="57.5" width="40" height="20" as="geometry" />
        </mxCell>
        <mxCell id="9RvozoWMVn-1PqEMfXuX-7" value="&lt;font style=&quot;font-size: 10px&quot;&gt;Others&lt;/font&gt;" style="text;html=1;strokeColor=none;fillColor=none;align=center;verticalAlign=middle;whiteSpace=wrap;rounded=0;" parent="1" vertex="1">
          <mxGeometry x="2104.0000000000005" y="85" width="40" height="20" as="geometry" />
        </mxCell>
        <mxCell id="9RvozoWMVn-1PqEMfXuX-8" value="" style="rounded=0;whiteSpace=wrap;html=1;strokeColor=#000000;fillColor=none;" parent="1" vertex="1">
          <mxGeometry x="2065" y="42.5" width="86" height="71.5" as="geometry" />
        </mxCell>
        <mxCell id="9RvozoWMVn-1PqEMfXuX-10" value="" style="html=1;shadow=0;dashed=0;align=center;verticalAlign=middle;shape=mxgraph.arrows2.twoWayArrow;dy=0.65;dx=22;rounded=0;strokeColor=#000000;fillColor=#CCE5FF;" parent="1" vertex="1">
          <mxGeometry x="2008" y="70.5" width="57" height="12" as="geometry" />
        </mxCell>
        <mxCell id="lrlbootZzJW0rNnsL_q0-1" value="&lt;b&gt;&lt;font color=&quot;#660000&quot;&gt;Test and Dev ESXi&lt;/font&gt;&lt;/b&gt;" style="text;html=1;strokeColor=none;fillColor=none;align=center;verticalAlign=middle;whiteSpace=wrap;rounded=0;" vertex="1" parent="1">
          <mxGeometry x="1732" y="354" width="125" height="12" as="geometry" />
        </mxCell>
        <mxCell id="lrlbootZzJW0rNnsL_q0-2" value="" style="aspect=fixed;pointerEvents=1;shadow=0;dashed=0;html=1;strokeColor=none;labelPosition=center;verticalLabelPosition=bottom;verticalAlign=top;align=center;fillColor=#00188D;shape=mxgraph.azure.virtual_machine_feature" vertex="1" parent="1">
          <mxGeometry x="1850" y="290" width="28.89" height="26" as="geometry" />
        </mxCell>
        <mxCell id="lrlbootZzJW0rNnsL_q0-3" value="" style="aspect=fixed;pointerEvents=1;shadow=0;dashed=0;html=1;strokeColor=none;labelPosition=center;verticalLabelPosition=bottom;verticalAlign=top;align=center;fillColor=#00188D;shape=mxgraph.azure.virtual_machine_feature" vertex="1" parent="1">
          <mxGeometry x="1761" y="290" width="28.89" height="26" as="geometry" />
        </mxCell>
        <mxCell id="lrlbootZzJW0rNnsL_q0-4" value="" style="aspect=fixed;pointerEvents=1;shadow=0;dashed=0;html=1;strokeColor=none;labelPosition=center;verticalLabelPosition=bottom;verticalAlign=top;align=center;fillColor=#00188D;shape=mxgraph.azure.virtual_machine_feature" vertex="1" parent="1">
          <mxGeometry x="1721" y="290" width="28.89" height="26" as="geometry" />
        </mxCell>
        <mxCell id="lrlbootZzJW0rNnsL_q0-5" value="17 Virtual Servers" style="text;html=1;strokeColor=none;fillColor=none;align=center;verticalAlign=middle;whiteSpace=wrap;rounded=0;" vertex="1" parent="1">
          <mxGeometry x="1718" y="323" width="139" height="12" as="geometry" />
        </mxCell>
        <mxCell id="lrlbootZzJW0rNnsL_q0-15" style="edgeStyle=orthogonalEdgeStyle;rounded=0;orthogonalLoop=1;jettySize=auto;html=1;exitX=0.5;exitY=0;exitDx=0;exitDy=0;entryX=0.149;entryY=0.794;entryDx=0;entryDy=0;entryPerimeter=0;startArrow=classic;startFill=1;" edge="1" parent="1" source="lrlbootZzJW0rNnsL_q0-6" target="ZslXiAwdW-3EuPROBi18-41">
          <mxGeometry relative="1" as="geometry" />
        </mxCell>
        <mxCell id="lrlbootZzJW0rNnsL_q0-6" value="" style="rounded=0;whiteSpace=wrap;html=1;fillColor=none;strokeColor=#CC0000;" vertex="1" parent="1">
          <mxGeometry x="1711" y="274" width="175" height="92" as="geometry" />
        </mxCell>
        <mxCell id="lrlbootZzJW0rNnsL_q0-7" style="edgeStyle=orthogonalEdgeStyle;rounded=0;orthogonalLoop=1;jettySize=auto;html=1;entryX=0.5;entryY=1;entryDx=0;entryDy=0;startArrow=classic;startFill=1;endArrow=classic;endFill=1;" edge="1" parent="1" source="lrlbootZzJW0rNnsL_q0-8" target="lrlbootZzJW0rNnsL_q0-6">
          <mxGeometry relative="1" as="geometry" />
        </mxCell>
        <mxCell id="lrlbootZzJW0rNnsL_q0-8" value="" style="rounded=1;whiteSpace=wrap;html=1;fillColor=none;strokeColor=#CC0000;" vertex="1" parent="1">
          <mxGeometry x="1712" y="397" width="174" height="28" as="geometry" />
        </mxCell>
        <mxCell id="lrlbootZzJW0rNnsL_q0-9" style="edgeStyle=orthogonalEdgeStyle;rounded=0;orthogonalLoop=1;jettySize=auto;html=1;entryX=0.5;entryY=1;entryDx=0;entryDy=0;startArrow=classic;startFill=1;endArrow=classic;endFill=1;" edge="1" parent="1" source="lrlbootZzJW0rNnsL_q0-10" target="lrlbootZzJW0rNnsL_q0-8">
          <mxGeometry relative="1" as="geometry" />
        </mxCell>
        <mxCell id="lrlbootZzJW0rNnsL_q0-10" value="" style="shape=cylinder3;whiteSpace=wrap;html=1;boundedLbl=1;backgroundOutline=1;size=15;fillColor=none;strokeColor=#CC0000;" vertex="1" parent="1">
          <mxGeometry x="1753" y="466" width="92" height="58" as="geometry" />
        </mxCell>
        <mxCell id="lrlbootZzJW0rNnsL_q0-11" value="Test &amp;amp; Dev SAN Switch" style="text;html=1;strokeColor=none;fillColor=none;align=center;verticalAlign=middle;whiteSpace=wrap;rounded=0;" vertex="1" parent="1">
          <mxGeometry x="1700.89" y="405" width="178" height="12" as="geometry" />
        </mxCell>
        <mxCell id="lrlbootZzJW0rNnsL_q0-12" value="SAN" style="text;html=1;strokeColor=none;fillColor=none;align=center;verticalAlign=middle;whiteSpace=wrap;rounded=0;" vertex="1" parent="1">
          <mxGeometry x="1779" y="497" width="40" height="20" as="geometry" />
        </mxCell>
        <mxCell id="lrlbootZzJW0rNnsL_q0-13" value="&lt;b&gt;&lt;font style=&quot;font-size: 13px&quot; color=&quot;#cc0000&quot;&gt;PLANNED FOR DECOMMISSION AFTER MIGRATE TO PULSANT PEC&lt;/font&gt;&lt;/b&gt;" style="text;html=1;strokeColor=none;fillColor=none;align=center;verticalAlign=middle;whiteSpace=wrap;rounded=0;" vertex="1" parent="1">
          <mxGeometry x="1697" y="533" width="195" height="57" as="geometry" />
        </mxCell>
        <mxCell id="lrlbootZzJW0rNnsL_q0-14" value="" style="rounded=0;whiteSpace=wrap;html=1;strokeColor=#CC0000;dashed=1;fillColor=none;" vertex="1" parent="1">
          <mxGeometry x="1700.89" y="263" width="191.11" height="271" as="geometry" />
        </mxCell>
        <mxCell id="lrlbootZzJW0rNnsL_q0-18" value="" style="shape=flexArrow;endArrow=classic;html=1;dashed=1;strokeColor=#3333FF;" edge="1" parent="1">
          <mxGeometry width="50" height="50" relative="1" as="geometry">
            <mxPoint x="1565" y="338" as="sourcePoint" />
            <mxPoint x="1705" y="288" as="targetPoint" />
            <Array as="points">
              <mxPoint x="1630" y="288" />
            </Array>
          </mxGeometry>
        </mxCell>
        <mxCell id="lrlbootZzJW0rNnsL_q0-19" value="&lt;font style=&quot;font-size: 14px&quot; color=&quot;#000099&quot;&gt;&lt;b&gt;Zerto&lt;/b&gt;&lt;/font&gt;" style="text;html=1;strokeColor=none;fillColor=none;align=center;verticalAlign=middle;whiteSpace=wrap;rounded=0;dashed=1;" vertex="1" parent="1">
          <mxGeometry x="1631" y="263" width="40" height="20" as="geometry" />
        </mxCell>
        <mxCell id="lrlbootZzJW0rNnsL_q0-21" value="Migrate to Pulsant cloud via Zerto" style="text;html=1;strokeColor=none;fillColor=none;align=center;verticalAlign=middle;whiteSpace=wrap;rounded=0;dashed=1;" vertex="1" parent="1">
          <mxGeometry x="1570.5300000000002" y="335" width="130.36" height="20" as="geometry" />
        </mxCell>
      </root>
    </mxGraphModel>
  </diagram>
</mxfile>
